<svg xmlns="http://www.w3.org/2000/svg" xmlns:xlink="http://www.w3.org/1999/xlink" width="500" zoomAndPan="magnify" viewBox="0 0 375 374.999991" height="500" preserveAspectRatio="xMidYMid meet" version="1.2"><defs><clipPath id="c56ad5a1c6"><path d="M 37.5 37.5 L 337.5 37.5 L 337.5 337.5 L 37.5 337.5 Z M 37.5 37.5 "/></clipPath><clipPath id="1d7667bf8a"><path d="M 93.75 37.5 L 281.25 37.5 C 312.316406 37.5 337.5 62.683594 337.5 93.75 L 337.5 281.25 C 337.5 312.316406 312.316406 337.5 281.25 337.5 L 93.75 337.5 C 62.683594 337.5 37.5 312.316406 37.5 281.25 L 37.5 93.75 C 37.5 62.683594 62.683594 37.5 93.75 37.5 Z M 93.75 37.5 "/></clipPath><clipPath id="ab4cb3d20c"><path d="M 162.453125 128.894531 L 212.546875 128.894531 L 212.546875 178.984375 L 162.453125 178.984375 Z M 162.453125 128.894531 "/></clipPath><clipPath id="5e0b1d2305"><path d="M 187.5 128.894531 C 173.667969 128.894531 162.453125 140.105469 162.453125 153.941406 C 162.453125 167.773438 173.667969 178.984375 187.5 178.984375 C 201.332031 178.984375 212.546875 167.773438 212.546875 153.941406 C 212.546875 140.105469 201.332031 128.894531 187.5 128.894531 Z M 187.5 128.894531 "/></clipPath><clipPath id="07425122b2"><path d="M 159.082031 138.453125 L 214.84375 138.453125 L 214.84375 182.582031 L 159.082031 182.582031 Z M 159.082031 138.453125 "/></clipPath><clipPath id="bc2a44eb54"><path d="M 136 87 L 188 87 L 188 139 L 136 139 Z M 136 87 "/></clipPath><clipPath id="1a7b8211f4"><path d="M 136.871094 92.855469 L 141.9375 87.789062 L 187.5 133.347656 L 182.429688 138.417969 Z M 136.871094 92.855469 "/></clipPath><clipPath id="dfb6126db6"><path d="M 187 87 L 239 87 L 239 139 L 187 139 Z M 187 87 "/></clipPath><clipPath id="a013038b8c"><path d="M 233.058594 87.789062 L 238.128906 92.859375 L 192.570312 138.417969 L 187.5 133.347656 Z M 233.058594 87.789062 "/></clipPath><clipPath id="67e5b8dce9"><path d="M 147.695312 142.703125 L 227.4375 142.703125 L 227.4375 148.011719 L 147.695312 148.011719 Z M 147.695312 142.703125 "/></clipPath><clipPath id="724722322d"><path d="M 143 139 L 188 139 L 188 205 L 143 205 Z M 143 139 "/></clipPath><clipPath id="3a0ff8cceb"><path d="M 148.542969 139.058594 L 187.765625 200.878906 L 182.785156 204.039062 L 143.558594 142.222656 Z M 148.542969 139.058594 "/></clipPath><clipPath id="9cf5871abc"><path d="M 192 131 L 238 131 L 238 196 L 192 196 Z M 192 131 "/></clipPath><clipPath id="62050b1899"><path d="M 237.34375 134.566406 L 197.28125 195.84375 L 192.339844 192.613281 L 232.40625 131.339844 Z M 237.34375 134.566406 "/></clipPath><clipPath id="f79d8addd0"><path d="M 139.324219 242.710938 L 164.144531 242.710938 L 164.144531 248.019531 L 139.324219 248.019531 Z M 139.324219 242.710938 "/></clipPath><clipPath id="df7da12125"><path d="M 209.292969 242.710938 L 235.125 242.710938 L 235.125 248.019531 L 209.292969 248.019531 Z M 209.292969 242.710938 "/></clipPath><clipPath id="53a7cd0d8f"><path d="M 204 207 L 235 207 L 235 252 L 204 252 Z M 204 207 "/></clipPath><clipPath id="2d9006e58b"><path d="M 234.300781 210.246094 L 209.816406 251.84375 L 204.730469 248.851562 L 229.210938 207.253906 Z M 234.300781 210.246094 "/></clipPath><clipPath id="29f6128453"><path d="M 140 207 L 171 207 L 171 252 L 140 252 Z M 140 207 "/></clipPath><clipPath id="cc68a3404c"><path d="M 145.683594 207.125 L 170.046875 248.796875 L 164.949219 251.773438 L 140.589844 210.101562 Z M 145.683594 207.125 "/></clipPath><clipPath id="7e79301983"><path d="M 137.636719 222.691406 L 143.539062 222.691406 L 143.539062 249.480469 L 137.636719 249.480469 Z M 137.636719 222.691406 "/></clipPath><clipPath id="19d0df530b"><path d="M 231.351562 221.230469 L 237.253906 221.230469 L 237.253906 248.019531 L 231.351562 248.019531 Z M 231.351562 221.230469 "/></clipPath></defs><g id="c32b0cb66d"><g clip-rule="nonzero" clip-path="url(#c56ad5a1c6)"><g clip-rule="nonzero" clip-path="url(#1d7667bf8a)"><path style=" stroke:none;fill-rule:nonzero;fill:#383852;fill-opacity:1;" d="M 37.5 37.5 L 337.5 37.5 L 337.5 337.5 L 37.5 337.5 Z M 37.5 37.5 "/></g></g><g clip-rule="nonzero" clip-path="url(#ab4cb3d20c)"><g clip-rule="nonzero" clip-path="url(#5e0b1d2305)"><path style=" stroke:none;fill-rule:nonzero;fill:#ffffff;fill-opacity:1;" d="M 162.453125 128.894531 L 212.546875 128.894531 L 212.546875 178.984375 L 162.453125 178.984375 Z M 162.453125 128.894531 "/></g></g><g clip-rule="nonzero" clip-path="url(#07425122b2)"><path style=" stroke:none;fill-rule:nonzero;fill:#383852;fill-opacity:1;" d="M 159.082031 138.453125 L 214.761719 138.453125 L 214.761719 182.582031 L 159.082031 182.582031 Z M 159.082031 138.453125 "/></g><g clip-rule="nonzero" clip-path="url(#bc2a44eb54)"><g clip-rule="nonzero" clip-path="url(#1a7b8211f4)"><path style=" stroke:none;fill-rule:nonzero;fill:#ffffff;fill-opacity:1;" d="M 136.871094 92.855469 L 141.9375 87.789062 L 187.507812 133.355469 L 182.4375 138.425781 Z M 136.871094 92.855469 "/></g></g><g clip-rule="nonzero" clip-path="url(#dfb6126db6)"><g clip-rule="nonzero" clip-path="url(#a013038b8c)"><path style=" stroke:none;fill-rule:nonzero;fill:#ffffff;fill-opacity:1;" d="M 233.058594 87.789062 L 238.128906 92.859375 L 192.5625 138.425781 L 187.492188 133.355469 Z M 233.058594 87.789062 "/></g></g><g clip-rule="nonzero" clip-path="url(#67e5b8dce9)"><path style=" stroke:none;fill-rule:nonzero;fill:#ffffff;fill-opacity:1;" d="M 147.695312 142.703125 L 227.429688 142.703125 L 227.429688 148.011719 L 147.695312 148.011719 Z M 147.695312 142.703125 "/></g><g clip-rule="nonzero" clip-path="url(#724722322d)"><g clip-rule="nonzero" clip-path="url(#3a0ff8cceb)"><path style=" stroke:none;fill-rule:nonzero;fill:#383852;fill-opacity:1;" d="M 148.542969 139.058594 L 187.765625 200.871094 L 182.78125 204.035156 L 143.558594 142.222656 Z M 148.542969 139.058594 "/></g></g><g clip-rule="nonzero" clip-path="url(#9cf5871abc)"><g clip-rule="nonzero" clip-path="url(#62050b1899)"><path style=" stroke:none;fill-rule:nonzero;fill:#383852;fill-opacity:1;" d="M 237.34375 134.566406 L 197.285156 195.839844 L 192.34375 192.609375 L 232.40625 131.339844 Z M 237.34375 134.566406 "/></g></g><g clip-rule="nonzero" clip-path="url(#f79d8addd0)"><path style=" stroke:none;fill-rule:nonzero;fill:#ffffff;fill-opacity:1;" d="M 139.324219 242.710938 L 164.140625 242.710938 L 164.140625 248.019531 L 139.324219 248.019531 Z M 139.324219 242.710938 "/></g><g clip-rule="nonzero" clip-path="url(#df7da12125)"><path style=" stroke:none;fill-rule:nonzero;fill:#ffffff;fill-opacity:1;" d="M 209.292969 242.710938 L 235.125 242.710938 L 235.125 248.019531 L 209.292969 248.019531 Z M 209.292969 242.710938 "/></g><g clip-rule="nonzero" clip-path="url(#53a7cd0d8f)"><g clip-rule="nonzero" clip-path="url(#2d9006e58b)"><path style=" stroke:none;fill-rule:nonzero;fill:#383852;fill-opacity:1;" d="M 234.300781 210.246094 L 209.820312 251.835938 L 204.734375 248.84375 L 229.210938 207.253906 Z M 234.300781 210.246094 "/></g></g><g clip-rule="nonzero" clip-path="url(#29f6128453)"><g clip-rule="nonzero" clip-path="url(#cc68a3404c)"><path style=" stroke:none;fill-rule:nonzero;fill:#383852;fill-opacity:1;" d="M 145.683594 207.125 L 170.039062 248.785156 L 164.945312 251.765625 L 140.589844 210.101562 Z M 145.683594 207.125 "/></g></g><g clip-rule="nonzero" clip-path="url(#7e79301983)"><path style=" stroke:none;fill-rule:nonzero;fill:#383852;fill-opacity:1;" d="M 143.539062 222.691406 L 143.539062 249.484375 L 137.636719 249.484375 L 137.636719 222.691406 Z M 143.539062 222.691406 "/></g><g clip-rule="nonzero" clip-path="url(#19d0df530b)"><path style=" stroke:none;fill-rule:nonzero;fill:#383852;fill-opacity:1;" d="M 237.253906 221.230469 L 237.253906 248.023438 L 231.351562 248.023438 L 231.351562 221.230469 Z M 237.253906 221.230469 "/></g><g style="fill:#ffffff;fill-opacity:1;"><g transform="translate(81.623078, 246.279275)"><path style="stroke:none" d="M 200.632812 5.335938 L 153.476562 5.335938 L 153.476562 -63.566406 L 158.8125 -63.566406 L 163.410156 -60.863281 L 124.488281 5.335938 L 87.1875 5.335938 L 48.335938 -60.867188 L 52.9375 -63.566406 L 58.273438 -63.566406 L 58.273438 5.335938 L 5.78125 5.335938 L 5.78125 -105.027344 L 63.726562 -105.027344 L 110.382812 -31.335938 L 105.875 -28.484375 L 101.363281 -31.335938 L 147.953125 -105.027344 L 205.96875 -105.027344 L 205.96875 5.335938 Z M 200.632812 -5.335938 L 200.632812 0 L 195.300781 0 L 195.300781 -99.691406 L 200.632812 -99.691406 L 200.632812 -94.355469 L 150.894531 -94.355469 L 150.894531 -99.691406 L 155.402344 -96.839844 L 105.878906 -18.503906 L 56.28125 -96.835938 L 60.789062 -99.691406 L 60.789062 -94.355469 L 11.117188 -94.355469 L 11.117188 -99.691406 L 16.449219 -99.691406 L 16.449219 0 L 11.117188 0 L 11.117188 -5.335938 L 52.9375 -5.335938 L 52.9375 0 L 47.601562 0 L 47.601562 -83.199219 L 94.84375 -2.699219 L 90.242188 0 L 90.242188 -5.335938 L 121.4375 -5.335938 L 121.4375 0 L 116.835938 -2.703125 L 164.148438 -83.167969 L 164.148438 0 L 158.8125 0 L 158.8125 -5.335938 Z M 200.632812 -5.335938 "/></g></g><g style="fill:#ffffff;fill-opacity:1;"><g transform="translate(293.376915, 246.279275)"><path style="stroke:none" d=""/></g></g><g style="fill:#b94e56;fill-opacity:1;"><g transform="translate(81.623078, 246.279275)"><path style="stroke:none" d="M 200.640625 0 L 158.8125 0 L 158.8125 -63.5625 L 121.4375 0 L 90.25 0 L 52.9375 -63.5625 L 52.9375 0 L 11.109375 0 L 11.109375 -99.6875 L 60.796875 -99.6875 L 105.875 -28.484375 L 150.890625 -99.6875 L 200.640625 -99.6875 Z M 200.640625 0 "/></g></g><g style="fill:#b94e56;fill-opacity:1;"><g transform="translate(293.376915, 246.279275)"><path style="stroke:none" d=""/></g></g></g></svg>