<svg xmlns="http://www.w3.org/2000/svg" xmlns:xlink="http://www.w3.org/1999/xlink" width="500" zoomAndPan="magnify" viewBox="0 0 375 374.999991" height="500" preserveAspectRatio="xMidYMid meet" version="1.2"><defs><clipPath id="7476901470"><path d="M 143.769531 113.019531 L 231.230469 113.019531 L 231.230469 200.484375 L 143.769531 200.484375 Z M 143.769531 113.019531 "/></clipPath><clipPath id="f52ef9fcc8"><path d="M 187.5 113.019531 C 163.347656 113.019531 143.769531 132.601562 143.769531 156.75 C 143.769531 180.902344 163.347656 200.484375 187.5 200.484375 C 211.652344 200.484375 231.230469 180.902344 231.230469 156.75 C 231.230469 132.601562 211.652344 113.019531 187.5 113.019531 Z M 187.5 113.019531 "/></clipPath><clipPath id="0dab9b4acb"><path d="M 137.878906 129.710938 L 235.246094 129.710938 L 235.246094 206.765625 L 137.878906 206.765625 Z M 137.878906 129.710938 "/></clipPath><clipPath id="8c7dabdd6c"><path d="M 99 41 L 188 41 L 188 130 L 99 130 Z M 99 41 "/></clipPath><clipPath id="865511b44e"><path d="M 99.097656 50.101562 L 107.949219 41.25 L 187.5 120.796875 L 178.648438 129.652344 Z M 99.097656 50.101562 "/></clipPath><clipPath id="b9b317cf1e"><path d="M 187 41 L 276 41 L 276 130 L 187 130 Z M 187 41 "/></clipPath><clipPath id="3a2fa9f642"><path d="M 267.050781 41.25 L 275.902344 50.101562 L 196.351562 129.652344 L 187.5 120.800781 Z M 267.050781 41.25 "/></clipPath><clipPath id="9d97fc6188"><path d="M 118 137.132812 L 257.226562 137.132812 L 257.226562 146.402344 L 118 146.402344 Z M 118 137.132812 "/></clipPath><clipPath id="d053272188"><path d="M 110 130 L 188 130 L 188 245 L 110 245 Z M 110 130 "/></clipPath><clipPath id="a178fdad41"><path d="M 119.480469 130.769531 L 187.96875 238.707031 L 179.265625 244.226562 L 110.78125 136.292969 Z M 119.480469 130.769531 "/></clipPath><clipPath id="dcb25c7be3"><path d="M 195 117 L 275 117 L 275 230 L 195 230 Z M 195 117 "/></clipPath><clipPath id="a0ebf7d575"><path d="M 274.53125 122.929688 L 204.578125 229.917969 L 195.953125 224.28125 L 265.90625 117.289062 Z M 274.53125 122.929688 "/></clipPath><clipPath id="1cdc6d8f89"><path d="M 103.382812 311.75 L 146.71875 311.75 L 146.71875 321.015625 L 103.382812 321.015625 Z M 103.382812 311.75 "/></clipPath><clipPath id="9b0e5bbc11"><path d="M 225.550781 311.75 L 270.65625 311.75 L 270.65625 321.015625 L 225.550781 321.015625 Z M 225.550781 311.75 "/></clipPath><clipPath id="110657a5ca"><path d="M 217 249 L 270 249 L 270 328 L 217 328 Z M 217 249 "/></clipPath><clipPath id="067b3f4fe8"><path d="M 269.210938 255.066406 L 226.464844 327.695312 L 217.582031 322.46875 L 260.332031 249.835938 Z M 269.210938 255.066406 "/></clipPath><clipPath id="1c36153546"><path d="M 105 249 L 158 249 L 158 328 L 105 328 Z M 105 249 "/></clipPath><clipPath id="12f52eca9f"><path d="M 114.488281 249.613281 L 157.023438 322.371094 L 148.125 327.574219 L 105.59375 254.8125 Z M 114.488281 249.613281 "/></clipPath><clipPath id="4cc163e509"><path d="M 100.441406 276.796875 L 110.746094 276.796875 L 110.746094 323.570312 L 100.441406 323.570312 Z M 100.441406 276.796875 "/></clipPath><clipPath id="62623c46ed"><path d="M 264.066406 274.242188 L 274.371094 274.242188 L 274.371094 321.015625 L 264.066406 321.015625 Z M 264.066406 274.242188 "/></clipPath></defs><g id="23f5632f9f"><rect x="0" width="375" y="0" height="374.999991" style="fill:#ffffff;fill-opacity:1;stroke:none;"/><rect x="0" width="375" y="0" height="374.999991" style="fill:#383852;fill-opacity:1;stroke:none;"/><g clip-rule="nonzero" clip-path="url(#7476901470)"><g clip-rule="nonzero" clip-path="url(#f52ef9fcc8)"><path style=" stroke:none;fill-rule:nonzero;fill:#ffffff;fill-opacity:1;" d="M 143.769531 113.019531 L 231.230469 113.019531 L 231.230469 200.484375 L 143.769531 200.484375 Z M 143.769531 113.019531 "/></g></g><g clip-rule="nonzero" clip-path="url(#0dab9b4acb)"><path style=" stroke:none;fill-rule:nonzero;fill:#383852;fill-opacity:1;" d="M 137.878906 129.710938 L 235.097656 129.710938 L 235.097656 206.765625 L 137.878906 206.765625 Z M 137.878906 129.710938 "/></g><g clip-rule="nonzero" clip-path="url(#8c7dabdd6c)"><g clip-rule="nonzero" clip-path="url(#865511b44e)"><path style=" stroke:none;fill-rule:nonzero;fill:#ffffff;fill-opacity:1;" d="M 99.097656 50.101562 L 107.949219 41.25 L 187.515625 120.8125 L 178.660156 129.664062 Z M 99.097656 50.101562 "/></g></g><g clip-rule="nonzero" clip-path="url(#b9b317cf1e)"><g clip-rule="nonzero" clip-path="url(#3a2fa9f642)"><path style=" stroke:none;fill-rule:nonzero;fill:#ffffff;fill-opacity:1;" d="M 267.050781 41.25 L 275.902344 50.101562 L 196.335938 129.667969 L 187.484375 120.816406 Z M 267.050781 41.25 "/></g></g><g clip-rule="nonzero" clip-path="url(#9d97fc6188)"><path style=" stroke:none;fill-rule:nonzero;fill:#ffffff;fill-opacity:1;" d="M 118 137.132812 L 257.21875 137.132812 L 257.21875 146.402344 L 118 146.402344 Z M 118 137.132812 "/></g><g clip-rule="nonzero" clip-path="url(#d053272188)"><g clip-rule="nonzero" clip-path="url(#a178fdad41)"><path style=" stroke:none;fill-rule:nonzero;fill:#383852;fill-opacity:1;" d="M 119.480469 130.769531 L 187.960938 238.699219 L 179.257812 244.21875 L 110.78125 136.292969 Z M 119.480469 130.769531 "/></g></g><g clip-rule="nonzero" clip-path="url(#dcb25c7be3)"><g clip-rule="nonzero" clip-path="url(#a0ebf7d575)"><path style=" stroke:none;fill-rule:nonzero;fill:#383852;fill-opacity:1;" d="M 274.53125 122.929688 L 204.582031 229.910156 L 195.957031 224.273438 L 265.90625 117.289062 Z M 274.53125 122.929688 "/></g></g><g clip-rule="nonzero" clip-path="url(#1cdc6d8f89)"><path style=" stroke:none;fill-rule:nonzero;fill:#ffffff;fill-opacity:1;" d="M 103.382812 311.75 L 146.710938 311.75 L 146.710938 321.015625 L 103.382812 321.015625 Z M 103.382812 311.75 "/></g><g clip-rule="nonzero" clip-path="url(#9b0e5bbc11)"><path style=" stroke:none;fill-rule:nonzero;fill:#ffffff;fill-opacity:1;" d="M 225.550781 311.75 L 270.652344 311.75 L 270.652344 321.015625 L 225.550781 321.015625 Z M 225.550781 311.75 "/></g><g clip-rule="nonzero" clip-path="url(#110657a5ca)"><g clip-rule="nonzero" clip-path="url(#067b3f4fe8)"><path style=" stroke:none;fill-rule:nonzero;fill:#383852;fill-opacity:1;" d="M 269.210938 255.066406 L 226.472656 327.679688 L 217.589844 322.453125 L 260.332031 249.835938 Z M 269.210938 255.066406 "/></g></g><g clip-rule="nonzero" clip-path="url(#1c36153546)"><g clip-rule="nonzero" clip-path="url(#12f52eca9f)"><path style=" stroke:none;fill-rule:nonzero;fill:#383852;fill-opacity:1;" d="M 114.488281 249.613281 L 157.015625 322.355469 L 148.117188 327.554688 L 105.59375 254.8125 Z M 114.488281 249.613281 "/></g></g><g clip-rule="nonzero" clip-path="url(#4cc163e509)"><path style=" stroke:none;fill-rule:nonzero;fill:#383852;fill-opacity:1;" d="M 110.746094 276.796875 L 110.746094 323.578125 L 100.441406 323.578125 L 100.441406 276.796875 Z M 110.746094 276.796875 "/></g><g clip-rule="nonzero" clip-path="url(#62623c46ed)"><path style=" stroke:none;fill-rule:nonzero;fill:#383852;fill-opacity:1;" d="M 274.371094 274.242188 L 274.371094 321.023438 L 264.066406 321.023438 L 264.066406 274.242188 Z M 274.371094 274.242188 "/></g><g style="fill:#ffffff;fill-opacity:1;"><g transform="translate(2.637214, 317.978392)"><path style="stroke:none" d="M 350.3125 4.65625 L 272.632812 4.65625 L 272.632812 -110.988281 L 277.289062 -110.988281 L 281.304688 -108.628906 L 214.695312 4.65625 L 154.898438 4.65625 L 88.414062 -108.632812 L 92.429688 -110.988281 L 97.085938 -110.988281 L 97.085938 4.65625 L 14.75 4.65625 L 14.75 -178.722656 L 108.699219 -178.722656 L 188.796875 -52.222656 L 184.859375 -49.734375 L 180.921875 -52.222656 L 260.894531 -178.722656 L 354.96875 -178.722656 L 354.96875 4.65625 Z M 350.3125 -4.65625 L 350.3125 0 L 345.652344 0 L 345.652344 -174.0625 L 350.3125 -174.0625 L 350.3125 -169.40625 L 263.460938 -169.40625 L 263.460938 -174.0625 L 267.398438 -171.574219 L 184.863281 -41.019531 L 102.199219 -171.570312 L 106.136719 -174.0625 L 106.136719 -169.40625 L 19.40625 -169.40625 L 19.40625 -174.0625 L 24.066406 -174.0625 L 24.066406 0 L 19.40625 0 L 19.40625 -4.65625 L 92.429688 -4.65625 L 92.429688 0 L 87.773438 0 L 87.773438 -128.128906 L 161.585938 -2.359375 L 157.566406 0 L 157.566406 -4.65625 L 212.03125 -4.65625 L 212.03125 0 L 208.015625 -2.359375 L 281.949219 -128.101562 L 281.949219 0 L 277.289062 0 L 277.289062 -4.65625 Z M 350.3125 -4.65625 "/></g></g><g style="fill:#ffffff;fill-opacity:1;"><g transform="translate(372.362781, 317.978392)"><path style="stroke:none" d=""/></g></g></g></svg>