<svg xmlns="http://www.w3.org/2000/svg" xmlns:xlink="http://www.w3.org/1999/xlink" width="500" zoomAndPan="magnify" viewBox="0 0 375 374.999991" height="500" preserveAspectRatio="xMidYMid meet" version="1.2"><defs/><g id="d8461543f3"><g style="fill:#b94e56;fill-opacity:1;"><g transform="translate(33.110684, 236.942239)"><path style="stroke:none" d="M 19.214844 -24.949219 L 17.03125 -78.394531 L 38.90625 -82.613281 L 53.585938 -6.519531 L 36.007812 -3.128906 L 25.789062 -56.097656 L 29.472656 -56.808594 L 33.21875 -56.960938 L 35.394531 -3.007812 L 18.894531 0.175781 L 0.363281 -49.855469 L 3.878906 -51.160156 L 7.5625 -51.871094 L 17.648438 0.414062 L 0.859375 3.652344 L -13.820312 -72.441406 L 8.011719 -76.652344 L 26.480469 -26.394531 L 22.960938 -25.101562 Z M 26.707031 -25.253906 L 19.441406 -23.808594 L 2.074219 -71.074219 L 5.59375 -72.367188 L 6.304688 -68.6875 L -8.71875 -65.789062 L -9.429688 -69.46875 L -5.746094 -70.179688 L 7.511719 -1.449219 L 3.828125 -0.738281 L 3.117188 -4.421875 L 12.546875 -6.238281 L 13.253906 -2.558594 L 9.574219 -1.847656 L 0.199219 -50.449219 L 7.394531 -52.460938 L 24.824219 -5.414062 L 21.304688 -4.109375 L 20.597656 -7.792969 L 30.808594 -9.761719 L 31.519531 -6.078125 L 27.769531 -5.929688 L 25.726562 -56.660156 L 33.152344 -57.519531 L 42.664062 -8.230469 L 38.980469 -7.519531 L 38.269531 -11.203125 L 48.480469 -13.171875 L 49.191406 -9.488281 L 45.507812 -8.777344 L 32.25 -77.511719 L 35.933594 -78.21875 L 36.644531 -74.539062 L 21.621094 -71.640625 L 20.910156 -75.324219 L 24.65625 -75.476562 Z M 26.707031 -25.253906 "/></g></g><g style="fill:#b94e56;fill-opacity:1;"><g transform="translate(84.693885, 227.184538)"><path style="stroke:none" d="M 15.730469 -18.175781 C 15.84375 -17.269531 16.011719 -16.554688 16.238281 -16.027344 C 16.351562 -15.765625 16.441406 -15.605469 16.511719 -15.554688 C 16.847656 -15.292969 17.363281 -15.203125 18.054688 -15.289062 C 18.746094 -15.375 19.222656 -15.585938 19.484375 -15.921875 C 19.539062 -15.992188 19.589844 -16.167969 19.632812 -16.449219 C 19.722656 -17.015625 19.714844 -17.75 19.601562 -18.65625 L 14.945312 -56.167969 C 14.832031 -57.070312 14.664062 -57.789062 14.4375 -58.316406 C 14.324219 -58.578125 14.234375 -58.734375 14.164062 -58.789062 C 13.828125 -59.050781 13.316406 -59.136719 12.625 -59.050781 C 11.929688 -58.964844 11.453125 -58.753906 11.191406 -58.417969 C 11.136719 -58.351562 11.089844 -58.175781 11.042969 -57.894531 C 10.953125 -57.328125 10.964844 -56.589844 11.074219 -55.6875 Z M 8.289062 -17.25 L 3.632812 -54.761719 C 3.195312 -58.304688 3.742188 -61.058594 5.277344 -63.03125 C 6.8125 -65 8.953125 -66.15625 11.699219 -66.496094 C 14.449219 -66.835938 16.804688 -66.238281 18.777344 -64.703125 C 20.746094 -63.171875 21.949219 -60.632812 22.390625 -57.089844 L 27.042969 -19.578125 C 27.484375 -16.039062 26.9375 -13.28125 25.402344 -11.3125 C 23.867188 -9.34375 21.726562 -8.1875 18.976562 -7.847656 C 16.230469 -7.503906 13.871094 -8.101562 11.902344 -9.636719 C 9.933594 -11.171875 8.726562 -13.710938 8.289062 -17.25 Z M -7.195312 -52.714844 C -8.015625 -59.324219 -6.898438 -64.710938 -3.835938 -68.875 C -0.726562 -73.105469 4.039062 -75.621094 10.46875 -76.417969 C 16.894531 -77.214844 22.132812 -75.945312 26.183594 -72.601562 C 30.167969 -69.3125 32.570312 -64.359375 33.390625 -57.75 L 37.875 -21.628906 C 38.695312 -15.019531 37.574219 -9.628906 34.515625 -5.464844 C 31.40625 -1.234375 26.636719 1.28125 20.210938 2.078125 C 13.78125 2.875 8.542969 1.601562 4.496094 -1.742188 C 0.507812 -5.03125 -1.894531 -9.980469 -2.714844 -16.589844 Z M 0.246094 -53.636719 L 4.730469 -17.515625 C 5.304688 -12.878906 6.816406 -9.546875 9.269531 -7.523438 C 11.65625 -5.554688 14.996094 -4.832031 19.285156 -5.367188 C 23.574219 -5.898438 26.636719 -7.410156 28.46875 -9.90625 C 30.351562 -12.46875 31.007812 -16.066406 30.429688 -20.703125 L 25.949219 -56.828125 C 25.371094 -61.464844 23.859375 -64.792969 21.40625 -66.816406 C 19.019531 -68.789062 15.679688 -69.507812 11.390625 -68.976562 C 7.101562 -68.445312 4.039062 -66.929688 2.207031 -64.433594 C 0.324219 -61.871094 -0.328125 -58.273438 0.246094 -53.636719 Z M 0.246094 -53.636719 "/></g></g><g style="fill:#b94e56;fill-opacity:1;"><g transform="translate(122.635368, 222.427993)"><path style="stroke:none" d="M 15.960938 -14.535156 L 20.816406 -75.292969 L 38.488281 -76.46875 L 31.695312 1.652344 L 8.914062 3.167969 L -8.152344 -73.371094 L 10.515625 -74.609375 L 23.363281 -15.027344 L 19.699219 -14.238281 Z M 23.4375 -13.9375 L 16.035156 -13.445312 L 3.867188 -69.863281 L 7.535156 -70.652344 L 7.78125 -66.910156 L -3.292969 -66.175781 L -3.539062 -69.917969 L 0.117188 -70.734375 L 15.535156 -1.605469 L 11.875 -0.789062 L 11.625 -4.53125 L 27.988281 -5.617188 L 28.238281 -1.875 L 24.5 -2.199219 L 30.636719 -72.761719 L 34.375 -72.433594 L 34.621094 -68.695312 L 24.546875 -68.023438 L 24.296875 -71.765625 L 28.035156 -71.46875 Z M 23.4375 -13.9375 "/></g></g><g style="fill:#b94e56;fill-opacity:1;"><g transform="translate(161.743375, 220.034163)"><path style="stroke:none" d="M -1.515625 -73.734375 L 16.980469 -74.175781 L 18.832031 3.300781 L 0.339844 3.742188 Z M 6.164062 -66.414062 L 7.65625 -3.933594 L 11.15625 -4.019531 L 9.660156 -66.5 Z M 6.164062 -66.414062 "/></g></g><g style="fill:#b94e56;fill-opacity:1;"><g transform="translate(179.780979, 219.405526)"><path style="stroke:none" d="M 15.707031 -44.003906 L 34.554688 -43.699219 L 34.273438 -26.203125 L 15.425781 -26.503906 L 15.488281 -30.253906 L 19.238281 -30.195312 L 18.90625 -9.699219 L 15.15625 -9.757812 L 15.21875 -13.507812 L 37.964844 -13.140625 L 37.683594 4.355469 L 0.191406 3.753906 L 1.433594 -73.734375 L 38.925781 -73.132812 L 38.648438 -55.636719 L 15.898438 -56 L 15.960938 -59.75 L 19.710938 -59.691406 L 19.398438 -40.191406 L 15.648438 -40.253906 Z M 11.835938 -36.5625 L 12.269531 -63.558594 L 35.015625 -63.195312 L 34.957031 -59.445312 L 31.207031 -59.503906 L 31.367188 -69.503906 L 35.117188 -69.445312 L 35.058594 -65.695312 L 5.0625 -66.175781 L 5.121094 -69.925781 L 8.871094 -69.863281 L 7.75 0.125 L 4 0.0625 L 4.058594 -3.683594 L 34.054688 -3.203125 L 33.996094 0.546875 L 30.246094 0.484375 L 30.40625 -9.511719 L 34.15625 -9.453125 L 34.09375 -5.703125 L 11.347656 -6.070312 L 11.796875 -34.0625 L 30.644531 -33.761719 L 30.585938 -30.011719 L 26.835938 -30.074219 L 26.996094 -40.070312 L 30.746094 -40.011719 L 30.683594 -36.261719 L 15.585938 -36.503906 Z M 11.835938 -36.5625 "/></g></g><g style="fill:#b94e56;fill-opacity:1;"><g transform="translate(215.358404, 219.975704)"><path style="stroke:none" d="M 17.824219 -41.546875 L 35.730469 -40.347656 L 34.558594 -22.886719 L 16.652344 -24.089844 L 16.902344 -27.828125 L 20.644531 -27.578125 L 18.457031 4.996094 L 0 3.757812 L 5.1875 -73.566406 L 41.707031 -71.113281 L 40.535156 -53.652344 L 18.734375 -55.117188 L 18.984375 -58.859375 L 22.726562 -58.609375 L 21.3125 -37.554688 L 17.570312 -37.808594 Z M 13.578125 -34.316406 L 15.496094 -62.851562 L 37.292969 -61.386719 L 37.042969 -57.648438 L 33.300781 -57.898438 L 33.972656 -67.875 L 37.714844 -67.625 L 37.460938 -63.882812 L 8.429688 -65.832031 L 8.679688 -69.574219 L 12.421875 -69.320312 L 7.734375 0.519531 L 3.992188 0.269531 L 4.242188 -3.472656 L 15.21875 -2.738281 L 14.964844 1.003906 L 11.222656 0.753906 L 13.410156 -31.824219 L 31.320312 -30.621094 L 31.070312 -26.878906 L 27.328125 -27.128906 L 27.996094 -37.105469 L 31.738281 -36.855469 L 31.488281 -33.113281 L 17.320312 -34.066406 Z M 13.578125 -34.316406 "/></g></g><g style="fill:#b94e56;fill-opacity:1;"><g transform="translate(248.513775, 222.176473)"><path style="stroke:none" d="M 12.515625 -72.789062 L 27.164062 -71.082031 L 19.78125 -7.761719 L 16.058594 -8.195312 L 16.492188 -11.917969 L 38.195312 -9.390625 L 36.167969 7.992188 L -0.1875 3.753906 L 8.789062 -73.222656 Z M 11.644531 -65.339844 L 12.082031 -69.0625 L 15.804688 -68.628906 L 7.699219 0.898438 L 3.972656 0.464844 L 4.40625 -3.261719 L 33.3125 0.109375 L 32.875 3.832031 L 29.152344 3.398438 L 30.308594 -6.53125 L 34.035156 -6.097656 L 33.601562 -2.375 L 11.898438 -4.90625 L 19.28125 -68.222656 L 23.007812 -67.789062 L 22.570312 -64.066406 Z M 11.644531 -65.339844 "/></g></g><g style="fill:#b94e56;fill-opacity:1;"><g transform="translate(281.4623, 226.145233)"><path style="stroke:none" d="M 11.566406 -72.835938 L 29.847656 -69.996094 L 17.953125 6.582031 L -0.328125 3.742188 Z M 17.828125 -64.273438 L 8.234375 -2.515625 L 11.691406 -1.980469 L 21.285156 -63.734375 Z M 17.828125 -64.273438 "/></g></g><g style="fill:#b94e56;fill-opacity:1;"><g transform="translate(299.238893, 228.61315)"><path style="stroke:none" d="M 56.949219 -58.71875 L 38.972656 -27.65625 L 35.726562 -29.535156 L 39.441406 -30.023438 L 45.085938 12.894531 L 25.902344 9.035156 L 22.226562 -22.601562 L 25.953125 -23.035156 L 29.214844 -21.183594 L 13.492188 6.539062 L -4.410156 2.9375 L 17.386719 -34.460938 L 20.628906 -32.570312 L 16.910156 -32.09375 L 11.675781 -72.878906 L 30.652344 -69.058594 L 34.011719 -39.414062 L 30.285156 -38.992188 L 27.023438 -40.84375 L 41.785156 -66.820312 L 59.566406 -63.242188 Z M 50.457031 -62.476562 L 53.703125 -60.597656 L 52.964844 -56.921875 L 42.964844 -58.933594 L 43.703125 -62.609375 L 46.964844 -60.753906 L 27.855469 -27.125 L 23.507812 -65.5 L 27.234375 -65.921875 L 26.496094 -62.246094 L 15.320312 -64.492188 L 16.058594 -68.171875 L 19.777344 -68.648438 L 24.511719 -31.785156 L 4.710938 2.183594 L 1.46875 0.296875 L 2.210938 -3.378906 L 12.308594 -1.347656 L 11.566406 2.328125 L 8.304688 0.476562 L 28.351562 -34.867188 L 33.035156 5.464844 L 29.3125 5.898438 L 30.050781 2.21875 L 41.421875 4.507812 L 40.683594 8.183594 L 36.964844 8.671875 L 31.839844 -30.308594 Z M 50.457031 -62.476562 "/></g></g><g style="fill:#ffffff;fill-opacity:1;"><g transform="translate(33.110684, 236.942239)"><path style="stroke:none" d="M 22.953125 -25.09375 L 20.90625 -75.328125 L 35.921875 -78.21875 L 49.1875 -9.484375 L 38.984375 -7.515625 L 29.46875 -56.8125 L 31.515625 -6.078125 L 21.3125 -4.109375 L 3.875 -51.171875 L 13.25 -2.5625 L 3.828125 -0.734375 L -9.4375 -69.46875 L 5.59375 -72.375 Z M 22.953125 -25.09375 "/></g></g><g style="fill:#ffffff;fill-opacity:1;"><g transform="translate(84.693885, 227.184538)"><path style="stroke:none" d="M 12 -17.703125 C 12.3125 -15.191406 13.046875 -13.488281 14.203125 -12.59375 C 15.359375 -11.707031 16.789062 -11.367188 18.5 -11.578125 C 20.226562 -11.796875 21.539062 -12.476562 22.4375 -13.625 C 23.34375 -14.769531 23.640625 -16.597656 23.328125 -19.109375 L 18.671875 -56.640625 C 18.359375 -59.148438 17.625 -60.851562 16.46875 -61.75 C 15.320312 -62.644531 13.882812 -62.984375 12.15625 -62.765625 C 10.445312 -62.554688 9.140625 -61.875 8.234375 -60.71875 C 7.328125 -59.570312 7.03125 -57.742188 7.34375 -55.234375 Z M -3.484375 -53.171875 C -4.179688 -58.796875 -3.289062 -63.289062 -0.8125 -66.65625 C 1.65625 -70.019531 5.566406 -72.035156 10.921875 -72.703125 C 16.285156 -73.367188 20.578125 -72.375 23.796875 -69.71875 C 27.015625 -67.0625 28.972656 -62.921875 29.671875 -57.296875 L 34.15625 -21.171875 C 34.851562 -15.546875 33.960938 -11.050781 31.484375 -7.6875 C 29.015625 -4.320312 25.097656 -2.304688 19.734375 -1.640625 C 14.378906 -0.972656 10.09375 -1.96875 6.875 -4.625 C 3.65625 -7.28125 1.695312 -11.421875 1 -17.046875 Z M -3.484375 -53.171875 "/></g></g><g style="fill:#ffffff;fill-opacity:1;"><g transform="translate(122.635368, 222.427993)"><path style="stroke:none" d="M 19.6875 -14.234375 L 24.296875 -71.765625 L 34.359375 -72.4375 L 28.234375 -1.875 L 11.875 -0.78125 L -3.546875 -69.921875 L 7.53125 -70.65625 Z M 19.6875 -14.234375 "/></g></g><g style="fill:#ffffff;fill-opacity:1;"><g transform="translate(161.743375, 220.034163)"><path style="stroke:none" d="M 2.328125 -70.078125 L 13.328125 -70.34375 L 15 -0.359375 L 4 -0.09375 Z M 2.328125 -70.078125 "/></g></g><g style="fill:#ffffff;fill-opacity:1;"><g transform="translate(179.780979, 219.405526)"><path style="stroke:none" d="M 15.65625 -40.265625 L 30.75 -40.015625 L 30.578125 -30.015625 L 15.484375 -30.265625 L 15.15625 -9.765625 L 34.15625 -9.453125 L 34 0.546875 L 4 0.0625 L 5.125 -69.921875 L 35.125 -69.4375 L 34.96875 -59.4375 L 15.96875 -59.75 Z M 15.65625 -40.265625 "/></g></g><g style="fill:#ffffff;fill-opacity:1;"><g transform="translate(215.358404, 219.975704)"><path style="stroke:none" d="M 17.578125 -37.8125 L 31.75 -36.859375 L 31.078125 -26.890625 L 16.90625 -27.84375 L 14.96875 1 L 3.984375 0.265625 L 8.671875 -69.578125 L 37.703125 -67.625 L 37.03125 -57.640625 L 18.984375 -58.859375 Z M 17.578125 -37.8125 "/></g></g><g style="fill:#ffffff;fill-opacity:1;"><g transform="translate(248.513775, 222.176473)"><path style="stroke:none" d="M 12.078125 -69.0625 L 23.015625 -67.796875 L 16.0625 -8.203125 L 34.03125 -6.109375 L 32.875 3.828125 L 3.96875 0.46875 Z M 12.078125 -69.0625 "/></g></g><g style="fill:#ffffff;fill-opacity:1;"><g transform="translate(281.4623, 226.145233)"><path style="stroke:none" d="M 14.703125 -68.5625 L 25.578125 -66.875 L 14.828125 2.296875 L 3.953125 0.609375 Z M 14.703125 -68.5625 "/></g></g><g style="fill:#ffffff;fill-opacity:1;"><g transform="translate(299.238893, 228.61315)"><path style="stroke:none" d="M 53.703125 -60.59375 L 35.71875 -29.53125 L 40.6875 8.1875 L 29.3125 5.890625 L 25.96875 -23.03125 L 11.5625 2.328125 L 1.46875 0.296875 L 20.625 -32.578125 L 16.046875 -68.171875 L 27.234375 -65.921875 L 30.28125 -38.984375 L 43.703125 -62.609375 Z M 53.703125 -60.59375 "/></g></g></g></svg>