<svg xmlns="http://www.w3.org/2000/svg" xmlns:xlink="http://www.w3.org/1999/xlink" width="500" zoomAndPan="magnify" viewBox="0 0 375 374.999991" height="500" preserveAspectRatio="xMidYMid meet" version="1.2"><defs/><g id="5f5fba634b"><g style="fill:#ffffff;fill-opacity:1;"><g transform="translate(33.110684, 236.942239)"><path style="stroke:none" d="M 22.953125 -25.09375 L 20.90625 -75.328125 L 35.921875 -78.21875 L 49.1875 -9.484375 L 38.984375 -7.515625 L 29.46875 -56.8125 L 31.515625 -6.078125 L 21.3125 -4.109375 L 3.875 -51.171875 L 13.25 -2.5625 L 3.828125 -0.734375 L -9.4375 -69.46875 L 5.59375 -72.375 Z M 22.953125 -25.09375 "/></g></g><g style="fill:#ffffff;fill-opacity:1;"><g transform="translate(84.693885, 227.184538)"><path style="stroke:none" d="M 12 -17.703125 C 12.3125 -15.191406 13.046875 -13.488281 14.203125 -12.59375 C 15.359375 -11.707031 16.789062 -11.367188 18.5 -11.578125 C 20.226562 -11.796875 21.539062 -12.476562 22.4375 -13.625 C 23.34375 -14.769531 23.640625 -16.597656 23.328125 -19.109375 L 18.671875 -56.640625 C 18.359375 -59.148438 17.625 -60.851562 16.46875 -61.75 C 15.320312 -62.644531 13.882812 -62.984375 12.15625 -62.765625 C 10.445312 -62.554688 9.140625 -61.875 8.234375 -60.71875 C 7.328125 -59.570312 7.03125 -57.742188 7.34375 -55.234375 Z M -3.484375 -53.171875 C -4.179688 -58.796875 -3.289062 -63.289062 -0.8125 -66.65625 C 1.65625 -70.019531 5.566406 -72.035156 10.921875 -72.703125 C 16.285156 -73.367188 20.578125 -72.375 23.796875 -69.71875 C 27.015625 -67.0625 28.972656 -62.921875 29.671875 -57.296875 L 34.15625 -21.171875 C 34.851562 -15.546875 33.960938 -11.050781 31.484375 -7.6875 C 29.015625 -4.320312 25.097656 -2.304688 19.734375 -1.640625 C 14.378906 -0.972656 10.09375 -1.96875 6.875 -4.625 C 3.65625 -7.28125 1.695312 -11.421875 1 -17.046875 Z M -3.484375 -53.171875 "/></g></g><g style="fill:#ffffff;fill-opacity:1;"><g transform="translate(122.635368, 222.427993)"><path style="stroke:none" d="M 19.6875 -14.234375 L 24.296875 -71.765625 L 34.359375 -72.4375 L 28.234375 -1.875 L 11.875 -0.78125 L -3.546875 -69.921875 L 7.53125 -70.65625 Z M 19.6875 -14.234375 "/></g></g><g style="fill:#ffffff;fill-opacity:1;"><g transform="translate(161.743375, 220.034163)"><path style="stroke:none" d="M 2.328125 -70.078125 L 13.328125 -70.34375 L 15 -0.359375 L 4 -0.09375 Z M 2.328125 -70.078125 "/></g></g><g style="fill:#ffffff;fill-opacity:1;"><g transform="translate(179.780979, 219.405526)"><path style="stroke:none" d="M 15.65625 -40.265625 L 30.75 -40.015625 L 30.578125 -30.015625 L 15.484375 -30.265625 L 15.15625 -9.765625 L 34.15625 -9.453125 L 34 0.546875 L 4 0.0625 L 5.125 -69.921875 L 35.125 -69.4375 L 34.96875 -59.4375 L 15.96875 -59.75 Z M 15.65625 -40.265625 "/></g></g><g style="fill:#ffffff;fill-opacity:1;"><g transform="translate(215.358404, 219.975704)"><path style="stroke:none" d="M 17.578125 -37.8125 L 31.75 -36.859375 L 31.078125 -26.890625 L 16.90625 -27.84375 L 14.96875 1 L 3.984375 0.265625 L 8.671875 -69.578125 L 37.703125 -67.625 L 37.03125 -57.640625 L 18.984375 -58.859375 Z M 17.578125 -37.8125 "/></g></g><g style="fill:#ffffff;fill-opacity:1;"><g transform="translate(248.513775, 222.176473)"><path style="stroke:none" d="M 12.078125 -69.0625 L 23.015625 -67.796875 L 16.0625 -8.203125 L 34.03125 -6.109375 L 32.875 3.828125 L 3.96875 0.46875 Z M 12.078125 -69.0625 "/></g></g><g style="fill:#ffffff;fill-opacity:1;"><g transform="translate(281.4623, 226.145233)"><path style="stroke:none" d="M 14.703125 -68.5625 L 25.578125 -66.875 L 14.828125 2.296875 L 3.953125 0.609375 Z M 14.703125 -68.5625 "/></g></g><g style="fill:#ffffff;fill-opacity:1;"><g transform="translate(299.238893, 228.61315)"><path style="stroke:none" d="M 53.703125 -60.59375 L 35.71875 -29.53125 L 40.6875 8.1875 L 29.3125 5.890625 L 25.96875 -23.03125 L 11.5625 2.328125 L 1.46875 0.296875 L 20.625 -32.578125 L 16.046875 -68.171875 L 27.234375 -65.921875 L 30.28125 -38.984375 L 43.703125 -62.609375 Z M 53.703125 -60.59375 "/></g></g></g></svg>